<svg xmlns="http://www.w3.org/2000/svg" width="2500" height="2500" viewBox="0 0 192.756 192.756"><g fill-rule="evenodd" clip-rule="evenodd"><path fill="#fff" d="M0 0h192.756v192.756H0V0z"/><path fill="#cc2229" d="M184.252 73.222v-3.859H8.504v3.859h175.748zM184.252 123.393v-3.86H8.504v3.86h175.748zM32.811 100.801c2.784 0 4.818-2.184 4.818-4.967a5.042 5.042 0 0 0-5.041-5.042c-1.275 0-2.664.697-3.552 1.479l-7.37-12.701a19.646 19.646 0 0 1 11.033-3.37c10.898 0 19.732 8.834 19.732 19.732 0 10.897-8.834 19.733-19.732 19.733s-19.733-8.836-19.733-19.733c0-5.714 2.133-10.416 6.163-14.168l8.968 15.802c1.523 2.524 2.648 3.235 4.714 3.235z"/><path d="M23.985 99.33c1.956 3.896 5.208 6.072 8.692 6.072 5.229 0 9.469-4.24 9.469-9.47 0-5.229-4.239-9.468-9.469-9.468a9.52 9.52 0 0 0-1.908.192l-2.831-5.009c1.444-.458 3.131-.853 4.727-.853 8.36 0 15.139 6.778 15.139 15.138s-6.778 15.138-15.139 15.138-15.139-6.777-15.139-15.138c0-2.109.432-4.117 1.359-5.941l5.1 9.339z" fill="#fff"/><path d="M65.8 108.029h-6.309v-25.01h6.441v8.133a9.003 9.003 0 1 1-.132 15.987v.89z" fill="#cc2229"/><path d="M69.715 102.303c1.725 0 3.122-1.398 3.122-3.123a3.122 3.122 0 1 0-6.245 0 3.123 3.123 0 0 0 3.123 3.123z" fill="#fff"/><path fill="#fff" d="M58.787 84.392l8.386 13.36v3.228l-8.386-13.359v-3.229z"/><path d="M91.591 96.008v-5.567h-6.679c-2.412 0-4.564 2.301-4.564 5.232v12.209h6.754v-9.5c-.038-1.41.594-2.413 1.855-2.413s2.634.039 2.634.039z" fill="#cc2229"/><path fill="#fff" d="M79.865 88.957l8.386 13.359v3.229l-8.386-13.36v-3.228z"/><path d="M110.199 101.467c-1.01 3.945-4.662 6.715-8.922 6.715a9.131 9.131 0 0 1-9.132-9.131 9.131 9.131 0 0 1 9.132-9.132 9.131 9.131 0 0 1 9.115 9.65H98.531c0 1.213.271 3.787 2.82 3.787 1.914 0 2.34-1.312 2.449-1.855l6.399-.034zm-8.996-7.167c-1.361 0-2.301.891-2.301 2.003h4.75c.012-.989-.953-2.003-2.449-2.003z" fill="#cc2229"/><path fill="#fff" d="M92.927 88.957l7.052 11.207-.743 2.041-6.309-10.02v-3.228z"/><path d="M132.893 107.809h6.383V95.487c0-2.598-2.672-5.641-5.938-5.641s-4.973 1.93-5.27 2.672c-.371-.742-2.301-2.598-5.047-2.598-1.953 0-3.711.965-4.23 1.411v-1.04h-6.158v17.442h6.158V97.418c0-1.262.891-2.079 1.93-2.079.842 0 2.08.743 2.08 2.005v10.391h6.084V97.344c0-1.386.793-2.005 1.93-2.005a2.09 2.09 0 0 1 2.078 2.079v10.391z" fill="#cc2229"/><path fill="#fff" d="M111.631 88.957l8.533 13.582-.74 2.039-7.793-12.393v-3.228z"/><path d="M147.439 107.734h-6.309V82.722h6.441v8.133a8.97 8.97 0 0 1 4.082-.976 9.001 9.001 0 0 1 9.002 9.003 9 9 0 0 1-9.002 9.002 8.966 8.966 0 0 1-4.213-1.043l-.001.893z" fill="#cc2229"/><path d="M151.355 102.006a3.123 3.123 0 1 0-3.123-3.123c0 1.773 1.373 3.123 3.123 3.123z" fill="#fff"/><path fill="#fff" d="M140.277 83.947l8.387 13.36v3.228l-8.387-13.36v-3.228z"/><path d="M161.643 98.717a9.028 9.028 0 0 1 18.054 0 9.026 9.026 0 0 1-9.027 9.025c-4.984 0-9.027-4.041-9.027-9.025zm9.027 3.193a3.218 3.218 0 1 0-.001-6.435 3.218 3.218 0 0 0 .001 6.435z" fill="#cc2229"/><path fill="#fff" d="M162.654 88.66l5.381 8.572v3.229l-5.381-8.573V88.66z"/></g></svg>